Coordinates
version=1
nRows=11
nColumns=63
inDegrees=yes

Units are S.I. units (second, meters, Newtons, ...)
If the header above contains a line with 'inDegrees', this indicates whether rotational values are in degrees (yes) or radians (no).

endheader
time	pelvis_tilt	pelvis_list	pelvis_rotation	pelvis_tx	pelvis_ty	pelvis_tz	hip_flexion_r	hip_adduction_r	hip_rotation_r	knee_angle_r	knee_angle_r_beta	ankle_angle_r	subtalar_angle_r	mtp_angle_r	hip_flexion_l	hip_adduction_l	hip_rotation_l	knee_angle_l	knee_angle_l_beta	ankle_angle_l	subtalar_angle_l	mtp_angle_l	L5_S1_Flex_Ext	L5_S1_Lat_Bending	L5_S1_axial_rotation	L4_L5_Flex_Ext	L4_L5_Lat_Bending	L4_L5_axial_rotation	L3_L4_Flex_Ext	L3_L4_Lat_Bending	L3_L4_axial_rotation	L2_L3_Flex_Ext	L2_L3_Lat_Bending	L2_L3_axial_rotation	L1_L2_Flex_Ext	L1_L2_Lat_Bending	L1_L2_axial_rotation	L1_T12_Flex_Ext	L1_T12_Lat_Bending	L1_T12_axial_rotation	Abs_r3	Abs_r2	Abs_r1	Abs_t1	Abs_t2	neck_flexion	neck_bending	neck_rotation	arm_flex_r	arm_add_r	arm_rot_r	elbow_flex_r	pro_sup_r	wrist_flex_r	wrist_dev_r	arm_flex_l	arm_add_l	arm_rot_l	elbow_flex_l	pro_sup_l	wrist_flex_l	wrist_dev_l
      3.53703704	      0.31716398	     -9.05043576	     95.36931975	      0.23303856	      1.07591331	      0.33290000	     -5.98573877	     -1.29219549	      0.48584388	      9.20122560	      0.16059168	     30.29032641	     -2.98385083	      0.00000000	     -9.24971789	      1.22019081	      5.61091506	      2.06465870	      0.03603509	     30.97086872	     -0.39254130	      0.00000000	     -0.07016759	      0.10711093	     -0.81770825	     -0.13030824	      0.14245754	     -0.86881502	     -0.11527834	      0.26042952	     -0.86881502	     -0.08019454	      0.26042952	     -0.71549472	     -0.06515763	      0.21842062	     -0.66438796	     -0.04009376	      0.16591484	     -0.61328119	     -0.50120011	      1.21166031	     -4.54784799	      0.00000000	      0.00000000	     25.28178502	      6.69322869	      1.12282670	      1.03293455	    -16.68550195	     47.94640193	     51.88143557	     47.36320103	     23.78005032	     -2.23492213	     -4.14739888	    -16.05473334	     34.30939584	     52.98124260	     83.24759948	     13.97208017	    -18.15723530
      3.55555556	      0.41050267	     -9.06247893	     95.31669675	      0.23289774	      1.07588560	      0.33287277	     -5.93256726	     -1.25314730	     -0.01455441	      9.15520273	      0.15978843	     30.36042730	     -2.09234133	      0.00000000	     -9.23062287	      1.14773581	      4.89882370	      2.23565039	      0.03901946	     30.72168531	     -0.20165942	      0.00000000	     -0.07362549	      0.12493170	     -0.80999922	     -0.13672990	      0.16615916	     -0.86062417	     -0.12095932	      0.30375893	     -0.86062417	     -0.08414658	      0.30375893	     -0.70874932	     -0.06836863	      0.25476072	     -0.65812437	     -0.04206961	      0.19351920	     -0.60749942	     -0.52589953	      1.41325233	     -4.50497268	      0.00000000	      0.00000000	     25.17608534	      7.14306280	      1.54862928	      0.61300732	    -16.58636180	     46.57065541	     52.06355807	     48.31076528	     23.72559847	     -1.87858210	     -4.11541049	    -15.93059086	     34.15161777	     52.97147229	     83.83004977	     14.16177449	    -18.25020549
      3.57407407	      0.51762078	     -9.09475490	     95.23870016	      0.23271458	      1.07591334	      0.33312641	     -5.83030232	     -1.19620722	     -0.30837422	      9.12602058	      0.15927911	     30.34288356	     -1.53058907	      0.00000000	     -9.16654731	      1.06720234	      4.04135579	      2.40965963	      0.04205649	     30.50206627	      0.20170773	      0.00000000	     -0.07169308	      0.14771697	     -0.79352594	     -0.13314123	      0.19646357	     -0.84312131	     -0.11778457	      0.35915905	     -0.84312131	     -0.08193803	      0.35915905	     -0.69433519	     -0.06657420	      0.30122445	     -0.64473982	     -0.04096543	      0.22881359	     -0.59514445	     -0.51209654	      1.67100394	     -4.41335320	      0.00000000	      0.00000000	     25.15944397	      7.41520711	      2.09506848	      0.29713239	    -16.52500037	     45.47577560	     52.15254308	     48.18678979	     23.72461028	     -1.61983234	     -3.62257285	    -16.00536539	     35.28304846	     52.66131517	     83.21966623	     13.90289240	    -18.82278977
      3.59259259	      0.65793571	     -9.12712715	     95.04615584	      0.23263354	      1.07593535	      0.33341239	     -5.69128118	     -1.13437584	     -0.68335306	      9.15345677	      0.15975796	     30.39969380	     -0.73293499	      0.00000000	     -9.12618074	      0.98732417	      3.94045197	      2.50440206	      0.04371006	     30.17810431	     -0.42904599	      0.00000000	     -0.07070706	      0.17441055	     -0.73979405	     -0.13131009	      0.23196603	     -0.78603118	     -0.11616464	      0.42406182	     -0.78603118	     -0.08081110	      0.42406182	     -0.64731979	     -0.06565858	      0.35565800	     -0.60108266	     -0.04040202	      0.27016195	     -0.55484554	     -0.50505349	      1.97296705	     -4.11451256	      0.00000000	      0.00000000	     25.37642046	      7.29647017	      2.42432434	     -0.60309647	    -16.10067128	     42.66840003	     52.33987944	     49.84269840	     23.62790326	     -0.73814524	     -3.23899745	    -15.88231740	     35.72934406	     52.44223759	     84.00625840	     13.89097223	    -18.76382538
      3.61111111	      0.71398053	     -9.12325743	     94.98381562	      0.23237252	      1.07594632	      0.33374788	     -5.65206077	     -1.12393930	     -0.96559286	      9.11892400	      0.15915525	     30.51487575	     -0.22505939	      0.00000000	     -9.11944668	      0.95457520	      3.23660433	      2.56004852	      0.04468128	     30.13704228	      0.16356877	      0.00000000	     -0.07313143	      0.18619821	     -0.76913962	     -0.13581238	      0.24764362	     -0.81721085	     -0.12014762	      0.45272233	     -0.81721085	     -0.08358191	      0.45272233	     -0.67299717	     -0.06790984	      0.37969539	     -0.62492594	     -0.04178730	      0.28842103	     -0.57685471	     -0.52237048	      2.10631138	     -4.27772382	      0.00000000	      0.00000000	     25.70074148	      7.11988502	      2.72449813	     -0.88962204	    -15.90451730	     42.00782525	     52.49937637	     49.21785353	     22.65289280	     -0.30658161	     -2.97997083	    -16.03658600	     36.53102249	     52.50488904	     82.68900018	     13.54563091	    -18.13086035
      3.62962963	      0.87530512	     -9.20837738	     94.41553755	      0.23258789	      1.07577167	      0.33406506	     -5.37822333	     -1.01109948	      0.14155487	      9.28157050	      0.16199396	     30.52027957	     -0.96775406	      0.00000000	     -9.08495787	      0.95733513	      4.05488779	      2.48439514	      0.04336088	     29.76191641	     -1.87600914	      0.00000000	     -0.05680344	      0.21558910	     -0.59726426	     -0.10548967	      0.28673350	     -0.63459328	     -0.09332237	      0.52418333	     -0.63459328	     -0.06492065	      0.52418333	     -0.52260623	     -0.05274767	      0.43962928	     -0.48527721	     -0.03245749	      0.33394751	     -0.44794820	     -0.40574129	      2.43878696	     -3.32180465	      0.00000000	      0.00000000	     26.00017509	      6.28361706	      2.59445915	     -2.03900412	    -15.35020513	     39.07680420	     52.55442983	     51.31478577	     22.88194354	      0.57864852	     -2.23019875	    -15.88324541	     37.41831919	     51.80137306	     83.58841896	     15.01552101	    -18.29217306
      3.64814815	      0.97648247	     -9.22569275	     94.01159591	      0.23267343	      1.07568529	      0.33433602	     -5.23998709	     -0.99945712	      0.11255910	      9.39547702	      0.16398201	     30.77297783	     -0.39623407	      0.00000000	     -9.09106808	      0.93426681	      3.10056931	      2.43818162	      0.04255430	     29.94076378	     -1.10867705	      0.00000000	     -0.05111958	      0.23392681	     -0.50742159	     -0.09493417	      0.31112265	     -0.53913544	     -0.08398435	      0.56876963	     -0.53913544	     -0.05842456	      0.56876963	     -0.44399389	     -0.04746964	      0.47702354	     -0.41228004	     -0.02920973	      0.36235262	     -0.38056619	     -0.36514202	      2.64622681	     -2.82212664	      0.00000000	      0.00000000	     26.23306286	      5.62221757	      2.47604524	     -2.38054814	    -15.25136053	     38.87145758	     52.54231272	     51.16514926	     22.35258641	      0.79337511	     -1.80417332	    -15.93493451	     38.27173315	     51.53443415	     82.38802352	     16.02884099	    -17.68770046
      3.66666667	      1.02763889	     -9.23111168	     93.78215097	      0.23299754	      1.07555229	      0.33445337	     -5.17301385	     -0.96615303	      0.32162535	      9.44745255	      0.16488915	     30.92785198	     -0.34448805	      0.00000000	     -9.13144571	      0.91869138	      3.11891695	      2.34298394	      0.04089278	     30.03510323	     -1.29298886	      0.00000000	     -0.04965964	      0.23804552	     -0.47450428	     -0.09222292	      0.31660054	     -0.50416079	     -0.08158583	      0.57878388	     -0.50416079	     -0.05675601	      0.57878388	     -0.41519124	     -0.04611394	      0.48542243	     -0.38553472	     -0.02837552	      0.36873251	     -0.35587821	     -0.35471386	      2.69281854	     -2.63905044	      0.00000000	      0.00000000	     26.40665140	      5.22281996	      2.44635074	     -2.47059340	    -15.07853149	     39.23227045	     52.36518857	     51.38985414	     22.03857810	      1.14229407	     -1.79185138	    -16.06329939	     38.27729379	     51.63726865	     82.43231585	     16.35518363	    -17.25570748
      3.68518519	      1.01176460	     -9.19684540	     92.87761144	      0.23371010	      1.07545655	      0.33442423	     -5.04387626	     -1.10092209	      0.96098311	      9.60625154	      0.16766072	     31.12263824	     -0.04682028	      0.00000000	     -9.29888862	      1.11959937	      2.75152887	      2.17857550	      0.03802332	     29.88328408	     -2.01220300	      0.00000000	     -0.05567400	      0.23847772	     -0.27567081	     -0.10339218	      0.31717537	     -0.29290024	     -0.09146681	      0.57983473	     -0.29290024	     -0.06362981	      0.57983473	     -0.24121196	     -0.05169887	      0.48630377	     -0.22398254	     -0.03181212	      0.36940199	     -0.20675311	     -0.39767379	      2.69770769	     -1.53319836	      0.00000000	      0.00000000	     26.46724009	      4.77177226	      1.86816514	     -2.45102497	    -15.39627610	     40.40343282	     52.70296749	     50.86935591	     21.11963020	      1.49562880	     -1.78025412	    -15.87955551	     37.60368889	     51.67808715	     82.42377917	     18.45011060	    -15.46890761
      3.70370370	      0.99001410	     -9.20762020	     92.20945868	      0.23432408	      1.07539723	      0.33446666	     -4.91395416	     -1.21072525	      1.39851668	      9.71224201	      0.16951060	     31.21293113	      0.20850141	      0.00000000	     -9.36981545	      1.26845766	      2.18364756	      2.07614045	      0.03623549	     29.81013408	     -2.17209275	      0.00000000	     -0.05690107	      0.23765533	     -0.14425385	     -0.10567099	      0.31608158	     -0.15326972	     -0.09348278	      0.57783516	     -0.15326972	     -0.06503224	      0.57783516	     -0.12622212	     -0.05283834	      0.48462674	     -0.11720625	     -0.03251327	      0.36812810	     -0.10819039	     -0.40643869	      2.68840458	     -0.80229664	      0.00000000	      0.00000000	     26.46686562	      4.41665951	      1.50443025	     -1.83689255	    -15.84257646	     42.71754419	     52.68403676	     49.65803222	     20.80321216	      1.64398261	     -1.64977040	    -15.88093783	     37.53243918	     51.68592732	     82.56873251	     19.32644723	    -14.88393295
      3.72222222	      0.92313183	     -9.24338891	     91.59827383	      0.23488489	      1.07535703	      0.33457917	     -4.76861025	     -1.37585494	      1.56024940	      9.81816331	      0.17135928	     31.24963722	      0.67704342	      0.00000000	     -9.40480538	      1.44924622	      1.62564295	      1.98442083	      0.03463468	     29.75215812	     -2.19800325	      0.00000000	     -0.05611655	      0.23172592	     -0.00754727	     -0.10421405	      0.30819548	     -0.00801897	     -0.09219388	      0.56341841	     -0.00801897	     -0.06413561	      0.56341841	     -0.00660386	     -0.05210983	      0.47253550	     -0.00613216	     -0.03206500	      0.35894345	     -0.00566045	     -0.40083491	      2.62132997	     -0.04197564	      0.00000000	      0.00000000	     26.34735632	      4.03825353	      1.08717164	     -1.22991776	    -16.21295394	     44.61710294	     52.68119054	     48.96366602	     20.68971333	      1.83739392	     -1.19493963	    -16.03620541	     38.49469539	     51.47824623	     82.43647803	     19.24193524	    -15.48410985
